<svg id="Layer_1" data-name="Layer 1" xmlns="http://www.w3.org/2000/svg" viewBox="0 0 368.64 344.42"><defs><style>.cls-1{fill:"currentColor";}</style></defs><path class="cls-1" d="M206.4,75.66H389.1a41.59,41.59,0,0,1,41.48,41.47h0a41.59,41.59,0,0,1-41.48,41.48H206.4a41.59,41.59,0,0,1-41.48-41.48h0A41.59,41.59,0,0,1,206.4,75.66Z" transform="translate(-61.94 -74.53)"/><path class="cls-1" d="M61.94,117.13a42.61,42.61,0,1,1,12.48,30.13A42.47,42.47,0,0,1,61.94,117.13Z" transform="translate(-61.94 -74.53)"/><path class="cls-1" d="M206.4,205.26H389.1a41.59,41.59,0,0,1,41.48,41.48h0a41.59,41.59,0,0,1-41.48,41.48H206.4a41.59,41.59,0,0,1-41.48-41.48h0a41.59,41.59,0,0,1,41.48-41.48Z" transform="translate(-61.94 -74.53)"/><path class="cls-1" d="M61.94,246.74a42.61,42.61,0,1,1,12.48,30.13A42.49,42.49,0,0,1,61.94,246.74Z" transform="translate(-61.94 -74.53)"/><path class="cls-1" d="M206.4,334.87H389.1a41.59,41.59,0,0,1,41.48,41.48h0a41.59,41.59,0,0,1-41.48,41.47H206.4a41.59,41.59,0,0,1-41.48-41.47h0a41.59,41.59,0,0,1,41.48-41.48Z" transform="translate(-61.94 -74.53)"/><path class="cls-1" d="M61.94,376.35a42.61,42.61,0,1,1,12.48,30.12A42.47,42.47,0,0,1,61.94,376.35Z" transform="translate(-61.94 -74.53)"/></svg>