<svg id="Layer_1" data-name="Layer 1" xmlns="http://www.w3.org/2000/svg" viewBox="0 0 228.96 255.74"><path d="M65.58,273.55c.17-1.72.34-3.44.49-5.17a120.77,120.77,0,0,1,7.19-33.09c7.14-18.74,20.42-31.1,38.64-38.56A33.77,33.77,0,0,1,128.08,194a15.62,15.62,0,0,1,6,1.64,92,92,0,0,0,30.53,10.43,99.82,99.82,0,0,0,27.94.49,91,91,0,0,0,34.12-11A14,14,0,0,1,233.4,194c9.64-.22,18.11,3.37,26.08,8.27,11,6.79,19.95,15.71,25.39,27.63a98.84,98.84,0,0,1,8.48,30.49c.53,4.84,1,9.69,1.18,14.55.16,4.59-2.34,8-6.06,10.29a104.81,104.81,0,0,1-19.84,9.13,223.31,223.31,0,0,1-44.21,10.8,289,289,0,0,1-34.14,2.93,11.26,11.26,0,0,0-1.28.18H171.26c-.47-.06-.94-.16-1.41-.19-6-.36-12.07-.61-18.09-1.1a244.65,244.65,0,0,1-43.22-7.34,165.11,165.11,0,0,1-34.29-12.89c-4.2-2.2-7.42-5.07-8.67-9.79Zm114.56,15.16a300.75,300.75,0,0,0,40.57-2.62,193.4,193.4,0,0,0,38.52-8.86c3.1-1.1,6.17-2.35,9.15-3.75a7.81,7.81,0,0,0,4.75-8.55c-.44-3.84-1-7.67-1.59-11.48-.87-5.24-3.14-10-5.29-14.8-5.63-12.6-14.66-21.29-28.39-24.45-4.41-1-8.94-1.37-13.21.49-13.68,5.94-28.13,8.22-42.87,8.93-8.06.39-16-.94-23.95-2.4-7.14-1.31-14.26-2.81-20.87-5.93a20.71,20.71,0,0,0-11.45-1.65c-9.59,1.07-17.43,5.5-23.75,12.76-4.77,5.48-7.63,12-10.34,18.59s-3.78,13.78-4.28,21a6.65,6.65,0,0,0,2.31,5.79,12.11,12.11,0,0,0,2.91,1.94c10.91,5,22.47,8,34.22,10.27A282.84,282.84,0,0,0,180.14,288.71Z" transform="translate(-65.58 -52.52)"/><path d="M114.44,118.13a65.69,65.69,0,1,1,65.38,65.77A65.75,65.75,0,0,1,114.44,118.13Zm113.12.08a47.43,47.43,0,1,0-47.37,47.39A47.46,47.46,0,0,0,227.56,118.21Z" transform="translate(-65.58 -52.52)"/></svg>