<svg id="Layer_1" data-name="Layer 1" xmlns="http://www.w3.org/2000/svg" viewBox="0 0 333.67 129.04"><path d="M43.83,184.15H29.67V142H12.42V128h48.7v14H43.83Z" transform="translate(-12.42 -127.04)" style="fill:#ffffff"/><path d="M103.06,170.76v13.39H67.18V128h35.88v13.38H81.35V151H99.23v12.49H81.35v7.25Z" transform="translate(-12.42 -127.04)" style="fill:#ffffff"/><path d="M136.85,171.06q7.74,0,12.87-6.88l10.41,9.93a29.34,29.34,0,0,1-23.61,11,27.53,27.53,0,0,1-20.22-8.33A28.56,28.56,0,0,1,108.08,156q0-12.48,8.36-20.7A28.11,28.11,0,0,1,136.85,127,29.27,29.27,0,0,1,159,136.63l-10.37,9.74a14.32,14.32,0,0,0-11.56-5.31,13.63,13.63,0,0,0-10.6,4.57A14.76,14.76,0,0,0,122.39,156a15.36,15.36,0,0,0,4.09,10.6A13.57,13.57,0,0,0,136.85,171.06Z" transform="translate(-12.42 -127.04)" style="fill:#ffffff"/><path d="M179.91,184.15H165.74V128h14.17V151h24.2V128h14.17v56.18H204.11V165h-24.2Z" transform="translate(-12.42 -127.04)" style="fill:#ffffff"/><path d="M242.78,184.15H228.61V127h.78l36.85,29.85V128H280.4v57.11h-.78l-36.84-30.34Z" transform="translate(-12.42 -127.04)" style="fill:#ffffff"/><path d="M346.09,156.11A28.49,28.49,0,0,1,338,176.67q-8.1,8.4-21,8.41T296,176.67a30.33,30.33,0,0,1,.15-41.19q8.07-8.44,21.08-8.44t20.86,8.44A28.79,28.79,0,0,1,346.09,156.11Zm-14.31.08a14.86,14.86,0,0,0-4.28-11,15.33,15.33,0,0,0-21,0,14.82,14.82,0,0,0-4.17,11,14.72,14.72,0,0,0,25.1,10.59A14.16,14.16,0,0,0,331.78,156.19Z" transform="translate(-12.42 -127.04)" style="fill:#ffffff"/><path d="M61.48,241.13v14H16.64l-.3-.67L40.17,213H20.06V199H61.85l.33.67-23.9,41.49Z" transform="translate(-12.42 -127.04)" style="fill:#ffffff"/><path d="M159.85,227.11a28.49,28.49,0,0,1-8.14,20.56q-8.11,8.4-21,8.41t-20.93-8.41a30.33,30.33,0,0,1,.15-41.19Q118,198,131,198t20.86,8.44A28.79,28.79,0,0,1,159.85,227.11Zm-14.31.08a14.86,14.86,0,0,0-4.28-11,15.34,15.34,0,0,0-21,0,14.85,14.85,0,0,0-4.16,11,14.72,14.72,0,0,0,25.1,10.59A14.16,14.16,0,0,0,145.54,227.19Z" transform="translate(-12.42 -127.04)" style="fill:#ffffff"/><path d="M219.67,255.15H205.5V198h.79l36.84,29.85V199h14.16v57.11h-.78l-36.84-30.34Z" transform="translate(-12.42 -127.04)" style="fill:#ffffff"/><path d="M341.58,241.76v13.39H305.7V199h35.88v13.38H319.87V222h17.88v12.49H319.87v7.25Z" transform="translate(-12.42 -127.04)" style="fill:#ffffff"/><circle cx="72.77" cy="100.73" r="6.38" style="fill:#ffffff"/><circle cx="167.03" cy="100.73" r="6.38" style="fill:#ffffff"/><circle cx="269.16" cy="100.73" r="6.38" style="fill:#ffffff"/></svg>