<svg id="Layer_1" data-name="Layer 1" xmlns="http://www.w3.org/2000/svg" viewBox="0 0 314 314">
  <path d="M180,117.19q-46.3,0-92.61,0c-8.64,0-14.62-4.18-16.71-11.59A15.55,15.55,0,0,1,83.23,86a29.11,29.11,0,0,1,4.27-.31q92.46,0,184.92,0c10.81,0,17.89,6.9,17.39,16.89a15.51,15.51,0,0,1-12.65,14.22,33.55,33.55,0,0,1-5.49.38Q225.83,117.2,180,117.19Z" transform="translate(-23 -23)" style="fill:#ffffff"/>
  <path d="M179.81,274.25q-46.31,0-92.61,0c-8.66,0-14.73-4.44-16.68-12A15.59,15.59,0,0,1,83.1,243.08a30.36,30.36,0,0,1,4.57-.33q92.31,0,184.61,0c9.13,0,15.25,4.36,17.19,12.19A15.61,15.61,0,0,1,277,273.87a32,32,0,0,1-5.18.36Q225.8,274.26,179.81,274.25Z" transform="translate(-23 -23)" style="fill:#ffffff"/>
  <path d="M132.85,164.21c15.33,0,30.65,0,46,0,8.85,0,15.34,5.25,16.58,13.22,1.54,9.94-5.6,18.11-16.1,18.25-8.17.11-16.35,0-24.52,0q-33.87,0-67.74,0c-8.37,0-14.33-4.28-16.39-11.59a15.53,15.53,0,0,1,12.56-19.58,34.62,34.62,0,0,1,5.19-.32Q110.63,164.19,132.85,164.21Z" transform="translate(-23 -23)" style="fill:#ffffff"/>
</svg>
