<svg id="Layer_1" data-name="Layer 1" xmlns="http://www.w3.org/2000/svg" viewBox="0 0 324 324">
  <path d="M18,45.16c2.52-5.47,6.83-7.13,12.71-7,17.16.26,34.32.09,51.47.09,7.1,0,10.19,2.42,11.75,9.25,2.15,9.42,4.24,18.86,6.44,28.64H104q113,0,226.1,0c4.18,0,7.67,1,10,4.76,1.81,3,1.4,6,.5,9.13q-9.61,33.44-19.18,66.87Q312.6,187.4,303.94,218c-2.19,7.68-4.87,9.69-12.82,9.69H124.7a22.24,22.24,0,0,0-4.4.23,9.44,9.44,0,0,0,1.28,18.66c1.15.09,2.31,0,3.47,0H291.47c7.57,0,12,3.47,12,9.45s-4.4,9.5-11.94,9.5c-3.89,0-7.78,0-11.77.19,7.83,1.78,14.29,5.68,18.77,12.34a27.87,27.87,0,0,1,4.25,22A28.39,28.39,0,0,1,247.3,300c-2.4-11.43,2.08-28.24,22.48-34.24H145c8.7,1.76,15.16,5.66,19.64,12.31a27.87,27.87,0,0,1,4.26,22,28.39,28.39,0,0,1-55.47-.05c-2.43-11.52,2.16-28.28,21.77-34.45-4.09,0-8.19.08-12.28,0-11.27-.28-20.06-5-25.58-15a28.1,28.1,0,0,1,11.34-38.29L110.9,211Q93.8,134,76.71,57.16c-15.49,0-30.74-.18-46,.09-5.89.11-10.2-1.57-12.72-7ZM129.79,208.65H286.88q16.2-56.73,32.42-113.46H104.58C113,133.07,121.38,170.78,129.79,208.65ZM150.62,294a9.46,9.46,0,1,0-9.37,9.47A9.55,9.55,0,0,0,150.62,294ZM275,284.54a9.46,9.46,0,1,0,9.55,9.29A9.54,9.54,0,0,0,275,284.54Z" transform="translate(-18 -18)" style="fill:#ffffff"/>
</svg>
