<svg id="Layer_1" data-name="Layer 1" xmlns="http://www.w3.org/2000/svg" viewBox="0 0 321.6 321.6">
  <path d="M166.32,19H191.4a3.86,3.86,0,0,0,1.23.59,152.94,152.94,0,0,1,48.71,11.77C311,61,350.23,132.43,337.51,206.89c-7.24,42.4-28.52,76.65-63.16,101.86-42.69,31.08-90.13,38.85-140.83,24.44-59.19-16.82-104-69-112.79-130.3-.49-3.43-1.15-6.83-1.73-10.24V166.32a8.26,8.26,0,0,0,.65-1.54c2-10.42,3.26-21.07,6.17-31.24,16.92-59.16,69-104,130.27-112.81C159.51,20.24,162.91,19.58,166.32,19ZM286.37,271.71c29.61-31.91,47.42-90.19,24-146.48-23.27-55.87-80.51-93.16-145.2-86.68A141.7,141.7,0,0,0,41,149.56,141.45,141.45,0,0,0,72.4,271.94c10.56-37.19,33.61-62.46,69-76.75-38-27.36-35.57-75.75-11.94-101.3,24.73-26.74,66.25-29.79,93.49-6.34,13.54,11.66,21.86,26.32,23.58,44.14,2.56,26.45-7.69,47.44-29,63.51a110.9,110.9,0,0,1,68.89,76.51ZM182,321.17c3.21-.26,9.06-.56,14.85-1.25,27-3.22,50.91-13.71,72-30.75a3.35,3.35,0,0,0,1.17-2.48,87.55,87.55,0,0,0-12.14-34.85c-21.73-35.47-61.76-51.62-102.08-41.31-34.82,8.9-62,39.71-66.82,76a3.59,3.59,0,0,0,1.19,2.74C116.21,310.21,146,320.73,182,321.17ZM179.6,187.91a48.72,48.72,0,1,0-.23-97.43c-26.83.07-49,22.39-48.66,49C131.05,166.39,152.94,188.07,179.6,187.91Z" transform="translate(-19 -19)" style="fill:#ffffff"/>
</svg>
